<svg xmlns="http://www.w3.org/2000/svg" viewBox="0 0 392.72 110.6">
  <defs>
    <style>
      .a {
        fill: #3d3d41;
      }

      .b {
        fill: #6100d5;
      }

      .c {
        fill: #6ab888;
      }
    </style>
  </defs>
  <title>CarClarity</title>
  <g>
    <g>
      <path class="a" d="M123.7,59c0-12.17,9.3-20.88,21.82-20.88,6.95,0,12.75,2.54,16.54,7.15l-6,5.54A12.91,12.91,0,0,0,146,46.05c-7.53,0-12.87,5.31-12.87,12.92S138.45,71.89,146,71.89a12.76,12.76,0,0,0,10.1-4.79l6,5.54c-3.79,4.67-9.59,7.21-16.6,7.21C133,79.85,123.7,71.14,123.7,59Z" transform="translate(-10.33 -2.91)"/>
      <path class="a" d="M194.79,61.45V79.16h-8.38V75.29c-1.66,2.83-4.88,4.33-9.42,4.33-7.23,0-11.54-4-11.54-9.4s3.85-9.29,13.27-9.29h7.12c0-3.86-2.3-6.11-7.12-6.11a14.84,14.84,0,0,0-8.9,2.88l-3.22-6.28C170,49,175,47.67,179.92,47.67,189.34,47.67,194.79,52.05,194.79,61.45Zm-8.95,7.9V66.18h-6.15c-4.19,0-5.51,1.56-5.51,3.64,0,2.24,1.89,3.74,5,3.74C182.22,73.56,184.8,72.18,185.84,69.35Z" transform="translate(-10.33 -2.91)"/>
      <path class="a" d="M222.08,47.67V56c-.75,0-1.32-.11-2-.11-4.94,0-8.21,2.71-8.21,8.65V79.16h-9v-31h8.55v4.09C213.64,49.22,217.31,47.67,222.08,47.67Z" transform="translate(-10.33 -2.91)"/>
      <path class="a" d="M226.28,59c0-11.94,9.07-20.65,21.3-20.65,6.2,0,11.6,2.14,15.28,6.29l-3.74,3.63a14.88,14.88,0,0,0-11.31-4.78C238.74,43.46,232,50,232,59s6.72,15.52,15.79,15.52a14.91,14.91,0,0,0,11.31-4.85l3.74,3.64c-3.68,4.15-9.08,6.34-15.34,6.34C235.35,79.62,226.28,70.91,226.28,59Z" transform="translate(-10.33 -2.91)"/>
      <path class="a" d="M269.12,36.36h5.51v42.8h-5.51Z" transform="translate(-10.33 -2.91)"/>
      <path class="a" d="M308.12,60.7V79.16h-5.23v-4c-1.84,2.77-5.22,4.38-10,4.38-6.89,0-11.26-3.69-11.26-9,0-4.91,3.16-8.94,12.24-8.94h8.72v-1.1c0-4.67-2.69-7.38-8.15-7.38a15.36,15.36,0,0,0-9.65,3.29l-2.29-4.16a20.22,20.22,0,0,1,12.57-3.92C303.41,48.3,308.12,52.34,308.12,60.7Zm-5.52,9.12V65.55h-8.49c-5.46,0-7,2.13-7,4.73,0,3,2.53,5,6.72,5S301.23,73.33,302.6,69.82Z" transform="translate(-10.33 -2.91)"/>
      <path class="a" d="M333.56,48.3v5.37a9.29,9.29,0,0,0-1.26-.06c-5.92,0-9.59,3.63-9.59,10.32V79.16h-5.52V48.59h5.29v5.13C324.43,50.15,328.22,48.3,333.56,48.3Z" transform="translate(-10.33 -2.91)"/>
      <path class="a" d="M338.22,39.13A3.63,3.63,0,0,1,342,35.5,3.58,3.58,0,0,1,345.68,39a3.73,3.73,0,0,1-7.46.11Zm1,9.46h5.51V79.16h-5.51Z" transform="translate(-10.33 -2.91)"/>
      <path class="a" d="M371.18,77.37a10.38,10.38,0,0,1-6.66,2.13c-6.15,0-9.65-3.4-9.65-9.57V53.15H349.7V48.59h5.17V41.9h5.52v6.69h8.72v4.56h-8.72V69.7c0,3.29,1.72,5.13,4.76,5.13a7,7,0,0,0,4.31-1.44Z" transform="translate(-10.33 -2.91)"/>
      <path class="a" d="M403.06,48.59,388.3,82.22c-2.7,6.45-6.2,8.47-10.86,8.47a11.43,11.43,0,0,1-7.81-2.82L372,83.72A7.76,7.76,0,0,0,377.44,86c2.65,0,4.31-1.21,5.8-4.72l1-2.14L370.78,48.59h5.75L387.15,73l10.51-24.45Z" transform="translate(-10.33 -2.91)"/>
    </g>
    <g>
      <g>
        <path class="b" d="M65.63,113.51a55.3,55.3,0,0,1-55.3-55.3A55.56,55.56,0,0,1,37.82,10.43a6,6,0,1,1,6.09,10.42,43.22,43.22,0,0,0,21.72,80.59,42.92,42.92,0,0,0,30-12.13l-11.13-8.7a29.31,29.31,0,1,1,4.21-40.4,6,6,0,1,1-9.51,7.42,17.23,17.23,0,1,0,0,21.17,6,6,0,0,1,4-2.27,6.09,6.09,0,0,1,4.45,1.23l20.48,16a6,6,0,0,1,1,8.48A55,55,0,0,1,65.63,113.51Z" transform="translate(-10.33 -2.91)"/>
        <path class="b" d="M104.5,34a6,6,0,0,1-4.76-2.32A43,43,0,0,0,65.63,15a6,6,0,0,1,0-12.07,55,55,0,0,1,43.62,21.3A6,6,0,0,1,104.5,34Z" transform="translate(-10.33 -2.91)"/>
      </g>
      <path class="c" d="M48.29,103.73" transform="translate(-10.33 -2.91)"/>
    </g>
  </g>
</svg>
